<svg xmlns="http://www.w3.org/2000/svg" viewBox="0 0 1000 1000"><rect width="1000" height="1000" fill="#FFFFFF"/><path d="M 677.4 280.8 L 664.4 269.8 L 650.9 259.5 L 636.8 250.1 L 622.1 241.5 L 607.0 233.7 L 591.5 226.9 L 575.6 220.9 L 559.3 215.9 L 542.8 211.8 L 526.1 208.6 L 509.3 206.5 L 492.4 205.3 L 475.4 205.0 L 458.4 205.8 L 441.5 207.5 L 424.7 210.2 L 408.1 213.9 L 391.8 218.5 L 375.7 224.0 L 360.0 230.5 L 344.7 237.9 L 329.8 246.1 L 315.5 255.1 L 301.6 265.0 L 288.4 275.7 L 275.8 287.1 L 263.9 299.2 L 252.7 312.0 L 242.3 325.4 L 232.6 339.3 L 223.8 353.8 L 215.8 368.8 L 208.7 384.3 L 202.4 400.1 L 197.1 416.2 L 192.8 432.6 L 189.4 449.3 L 187.0 466.1 L 185.5 483.0 L 185.0 500.0 L 185.5 517.0 L 187.0 533.9 L 189.4 550.7 L 192.8 567.4 L 197.1 583.8 L 202.4 599.9 L 208.7 615.7 L 215.8 631.2 L 223.8 646.2 L 232.6 660.7 L 242.3 674.6 L 252.7 688.0 L 263.9 700.8 L 275.8 712.9 L 288.4 724.3 L 301.6 735.0 L 315.5 744.9 L 329.8 753.9 L 344.7 762.1 L 360.0 769.5 L 375.7 776.0 L 391.8 781.5 L 408.1 786.1 L 424.7 789.8 L 441.5 792.5 L 458.4 794.2 L 475.4 795.0 L 492.4 794.7 L 509.3 793.5 L 526.1 791.4 L 542.8 788.2 L 559.3 784.1 L 575.6 779.1 L 591.5 773.1 L 607.0 766.3 L 622.1 758.5 L 636.8 749.9 L 650.9 740.5 L 664.4 730.2 L 677.4 719.2 L 597.1 630.1 L 589.4 636.6 L 581.4 642.6 L 573.0 648.2 L 564.3 653.4 L 555.3 658.0 L 546.1 662.0 L 536.7 665.6 L 527.1 668.6 L 517.3 671.0 L 507.4 672.8 L 497.4 674.1 L 487.3 674.8 L 477.3 675.0 L 467.2 674.5 L 457.2 673.5 L 447.2 671.9 L 437.4 669.7 L 427.7 667.0 L 418.1 663.7 L 408.8 659.9 L 399.7 655.5 L 390.9 650.6 L 382.4 645.3 L 374.2 639.4 L 366.3 633.1 L 358.9 626.3 L 351.8 619.1 L 345.2 611.5 L 339.0 603.6 L 333.2 595.3 L 328.0 586.7 L 323.3 577.8 L 319.0 568.7 L 315.3 559.3 L 312.2 549.7 L 309.6 540.0 L 307.6 530.1 L 306.2 520.1 L 305.3 510.1 L 305.0 500.0 L 305.3 489.9 L 306.2 479.9 L 307.6 469.9 L 309.6 460.0 L 312.2 450.3 L 315.3 440.7 L 319.0 431.3 L 323.3 422.2 L 328.0 413.3 L 333.2 404.7 L 339.0 396.4 L 345.2 388.5 L 351.8 380.9 L 358.9 373.7 L 366.3 366.9 L 374.2 360.6 L 382.4 354.7 L 390.9 349.4 L 399.7 344.5 L 408.8 340.1 L 418.1 336.3 L 427.7 333.0 L 437.4 330.3 L 447.2 328.1 L 457.2 326.5 L 467.2 325.5 L 477.3 325.0 L 487.3 325.2 L 497.4 325.9 L 507.4 327.2 L 517.3 329.0 L 527.1 331.4 L 536.7 334.4 L 546.1 338.0 L 555.3 342.0 L 564.3 346.6 L 573.0 351.8 L 581.4 357.4 L 589.4 363.4 L 597.1 369.9 Z" fill="#0E0E10"/><circle cx="637.2" cy="325.4" r="60" fill="#0E0E10"/><circle cx="637.2" cy="674.6" r="60" fill="#0E0E10"/><circle cx="717.2" cy="253.4" r="52" fill="#0E0E10"/></svg>