<svg xmlns="http://www.w3.org/2000/svg" viewBox="0 0 1000 1000"><rect width="1000" height="1000" fill="#FFFFFF"/><path d="M 648.0 313.5 L 637.4 303.6 L 626.2 294.3 L 614.5 285.6 L 602.3 277.6 L 589.6 270.3 L 576.4 263.7 L 562.9 257.9 L 549.0 252.9 L 534.8 248.6 L 520.4 245.2 L 505.7 242.6 L 490.9 240.8 L 475.9 239.9 L 460.9 239.9 L 445.9 240.7 L 430.9 242.4 L 416.0 245.0 L 401.2 248.5 L 386.6 252.8 L 372.2 257.9 L 358.1 263.9 L 344.4 270.7 L 331.0 278.3 L 318.1 286.7 L 305.6 295.8 L 293.7 305.7 L 282.3 316.3 L 271.5 327.5 L 261.4 339.4 L 251.9 351.9 L 243.1 364.9 L 235.1 378.4 L 227.9 392.5 L 221.4 406.9 L 215.8 421.8 L 211.1 436.9 L 207.2 452.4 L 204.2 468.1 L 202.2 484.0 L 201.0 500.0 L 200.8 516.1 L 201.5 532.2 L 203.1 548.3 L 205.6 564.3 L 209.1 580.2 L 213.5 595.9 L 218.9 611.4 L 225.1 626.5 L 232.2 641.4 L 240.1 655.8 L 248.9 669.7 L 258.6 683.2 L 269.0 696.1 L 280.1 708.4 L 292.0 720.1 L 304.5 731.2 L 317.8 741.5 L 331.6 751.0 L 345.9 759.7 L 360.8 767.7 L 376.2 774.7 L 392.0 780.9 L 408.1 786.2 L 424.6 790.6 L 441.3 794.0 L 458.2 796.4 L 475.3 797.9 L 492.5 798.3 L 509.7 797.8 L 526.9 796.3 L 544.1 793.8 L 561.1 790.3 L 577.9 785.8 L 594.4 780.4 L 610.7 773.9 L 626.5 766.6 L 642.0 758.3 L 657.0 749.1 L 671.5 739.0 L 685.4 728.1 L 589.1 621.1 L 582.4 627.8 L 575.2 634.0 L 567.7 639.9 L 559.9 645.3 L 551.7 650.3 L 543.2 654.8 L 534.4 658.8 L 525.3 662.4 L 516.1 665.4 L 506.6 667.9 L 497.0 669.9 L 487.2 671.2 L 477.3 672.1 L 467.3 672.3 L 457.4 672.0 L 447.4 671.1 L 437.4 669.6 L 427.5 667.6 L 417.7 664.9 L 408.0 661.7 L 398.5 657.9 L 389.2 653.6 L 380.1 648.7 L 371.3 643.2 L 362.8 637.3 L 354.6 630.8 L 346.8 623.8 L 339.3 616.4 L 332.3 608.5 L 325.7 600.2 L 319.6 591.5 L 313.9 582.4 L 308.8 573.0 L 304.2 563.3 L 300.2 553.3 L 296.8 543.0 L 293.9 532.5 L 291.7 521.8 L 290.0 511.0 L 289.0 500.0 L 288.6 489.0 L 288.9 477.9 L 289.8 466.8 L 291.3 455.7 L 293.5 444.8 L 296.3 433.9 L 299.8 423.1 L 303.9 412.6 L 308.6 402.2 L 313.9 392.2 L 319.9 382.4 L 326.4 372.9 L 333.4 363.8 L 341.0 355.1 L 349.1 346.8 L 357.8 338.9 L 366.8 331.6 L 376.4 324.8 L 386.3 318.5 L 396.6 312.7 L 407.3 307.6 L 418.3 303.0 L 429.5 299.1 L 441.1 295.9 L 452.8 293.3 L 464.7 291.4 L 476.7 290.1 L 488.8 289.6 L 501.0 289.7 L 513.2 290.6 L 525.3 292.2 L 537.4 294.5 L 549.4 297.4 L 561.2 301.1 L 572.8 305.5 L 584.2 310.5 L 595.3 316.3 L 606.1 322.6 L 616.5 329.6 L 626.5 337.3 Z" fill="#0E0E10"/><circle cx="637.2" cy="674.6" r="72" fill="#0E0E10"/><circle cx="733.2" cy="295.4" r="48" fill="#0E0E10"/><g stroke="#0E0E10" stroke-width="11" stroke-linecap="round"><line x1="667.2456924943316" y1="233.36096601281224" x2="817.2456924943316" y2="226.36096601281224"/><line x1="675.2456924943316" y1="259.36096601281224" x2="801.2456924943316" y2="252.36096601281224"/><line x1="683.2456924943316" y1="285.36096601281224" x2="785.2456924943316" y2="278.36096601281224"/></g></svg>