<svg xmlns="http://www.w3.org/2000/svg" viewBox="0 0 1000 1000"><rect width="1000" height="1000" fill="#14213D"/><circle cx="500" cy="500" r="445" fill="none" stroke="#C8A24B" stroke-width="9"/><defs><path id="t500_500_405" d="M 95 500 A 405 405 0 0 1 905 500"/><path id="b500_500_405" d="M 95 500 A 405 405 0 0 0 905 500"/></defs><text font-family="Liberation Sans" font-weight="bold" font-size="52" fill="#C8A24B" letter-spacing="6" text-anchor="middle"><textPath href="#t500_500_405" startOffset="50%">COOPERS GOLF</textPath></text><text font-family="Liberation Sans" font-weight="bold" font-size="52" fill="#C8A24B" letter-spacing="6" text-anchor="middle"><textPath href="#b500_500_405" startOffset="50%">EST · 2026</textPath></text><circle cx="500" cy="490" r="150" fill="#F4EFE3"/><circle cx="394.1" cy="428.2" r="13.6" fill="#14213D" opacity="0.5"/><circle cx="394.1" cy="472.4" r="13.6" fill="#14213D" opacity="0.5"/><circle cx="394.1" cy="516.5" r="13.6" fill="#14213D" opacity="0.5"/><circle cx="394.1" cy="560.6" r="13.6" fill="#14213D" opacity="0.5"/><circle cx="438.2" cy="384.1" r="13.6" fill="#14213D" opacity="0.5"/><circle cx="438.2" cy="428.2" r="13.6" fill="#14213D" opacity="0.5"/><circle cx="438.2" cy="472.4" r="13.6" fill="#14213D" opacity="0.5"/><circle cx="438.2" cy="516.5" r="13.6" fill="#14213D" opacity="0.5"/><circle cx="438.2" cy="560.6" r="13.6" fill="#14213D" opacity="0.5"/><circle cx="438.2" cy="604.7" r="13.6" fill="#14213D" opacity="0.5"/><circle cx="482.4" cy="384.1" r="13.6" fill="#14213D" opacity="0.5"/><circle cx="482.4" cy="428.2" r="13.6" fill="#14213D" opacity="0.5"/><circle cx="482.4" cy="472.4" r="13.6" fill="#14213D" opacity="0.5"/><circle cx="482.4" cy="516.5" r="13.6" fill="#14213D" opacity="0.5"/><circle cx="482.4" cy="560.6" r="13.6" fill="#14213D" opacity="0.5"/><circle cx="482.4" cy="604.7" r="13.6" fill="#14213D" opacity="0.5"/><circle cx="526.5" cy="384.1" r="13.6" fill="#14213D" opacity="0.5"/><circle cx="526.5" cy="428.2" r="13.6" fill="#14213D" opacity="0.5"/><circle cx="526.5" cy="472.4" r="13.6" fill="#14213D" opacity="0.5"/><circle cx="526.5" cy="516.5" r="13.6" fill="#14213D" opacity="0.5"/><circle cx="526.5" cy="560.6" r="13.6" fill="#14213D" opacity="0.5"/><circle cx="526.5" cy="604.7" r="13.6" fill="#14213D" opacity="0.5"/><circle cx="570.6" cy="384.1" r="13.6" fill="#14213D" opacity="0.5"/><circle cx="570.6" cy="428.2" r="13.6" fill="#14213D" opacity="0.5"/><circle cx="570.6" cy="472.4" r="13.6" fill="#14213D" opacity="0.5"/><circle cx="570.6" cy="516.5" r="13.6" fill="#14213D" opacity="0.5"/><circle cx="570.6" cy="560.6" r="13.6" fill="#14213D" opacity="0.5"/><circle cx="614.7" cy="428.2" r="13.6" fill="#14213D" opacity="0.5"/><circle cx="614.7" cy="472.4" r="13.6" fill="#14213D" opacity="0.5"/><circle cx="614.7" cy="516.5" r="13.6" fill="#14213D" opacity="0.5"/><path d="M 500.0 412.7 L 503.5 422.1 L 513.6 422.6 L 505.7 428.9 L 508.4 438.6 L 500.0 433.0 L 491.6 438.6 L 494.3 428.9 L 486.4 422.6 L 496.5 422.1 Z" fill="#C8A24B"/><path d="M 496.6 538.7 L 500.2 548.1 L 510.2 548.6 L 502.3 554.9 L 505.0 564.6 L 496.6 559.0 L 488.2 564.6 L 490.9 554.9 L 483.1 548.6 L 493.1 548.1 Z" fill="#C8A24B"/><path d="M 550.4 490.0 L 553.5 498.3 L 562.4 498.7 L 555.4 504.2 L 557.8 512.8 L 550.4 507.9 L 543.0 512.8 L 545.4 504.2 L 538.4 498.7 L 547.3 498.3 Z" fill="#C8A24B"/><path d="M 445.4 481.6 L 448.5 489.9 L 457.4 490.3 L 450.4 495.8 L 452.8 504.4 L 445.4 499.5 L 438.0 504.4 L 440.4 495.8 L 433.4 490.3 L 442.3 489.9 Z" fill="#C8A24B"/><path d="M 516.8 477.4 L 518.9 482.9 L 524.8 483.2 L 520.2 486.9 L 521.7 492.6 L 516.8 489.3 L 511.9 492.6 L 513.4 486.9 L 508.8 483.2 L 514.7 482.9 Z" fill="#C8A24B"/></svg>