<svg xmlns="http://www.w3.org/2000/svg" viewBox="0 0 1000 1000"><rect width="1000" height="1000" fill="#F4EFE3"/><ellipse cx="778.2" cy="357.6" rx="22" ry="9" fill="#1F5135" transform="rotate(-158.0 778.2 357.6)"/><ellipse cx="757.0" cy="315.2" rx="22" ry="9" fill="#1F5135" transform="rotate(-148.9 757.0 315.2)"/><ellipse cx="729.4" cy="276.6" rx="22" ry="9" fill="#1F5135" transform="rotate(-139.9 729.4 276.6)"/><ellipse cx="696.0" cy="242.9" rx="22" ry="9" fill="#1F5135" transform="rotate(-130.8 696.0 242.9)"/><ellipse cx="657.8" cy="214.8" rx="22" ry="9" fill="#1F5135" transform="rotate(-121.7 657.8 214.8)"/><ellipse cx="615.6" cy="193.2" rx="22" ry="9" fill="#1F5135" transform="rotate(-112.7 615.6 193.2)"/><ellipse cx="570.5" cy="178.4" rx="22" ry="9" fill="#1F5135" transform="rotate(-103.6 570.5 178.4)"/><ellipse cx="523.7" cy="170.9" rx="22" ry="9" fill="#1F5135" transform="rotate(-94.5 523.7 170.9)"/><ellipse cx="476.3" cy="170.9" rx="22" ry="9" fill="#1F5135" transform="rotate(-85.5 476.3 170.9)"/><ellipse cx="429.5" cy="178.4" rx="22" ry="9" fill="#1F5135" transform="rotate(-76.4 429.5 178.4)"/><ellipse cx="384.4" cy="193.2" rx="22" ry="9" fill="#1F5135" transform="rotate(-67.3 384.4 193.2)"/><ellipse cx="342.2" cy="214.8" rx="22" ry="9" fill="#1F5135" transform="rotate(-58.3 342.2 214.8)"/><ellipse cx="304.0" cy="242.9" rx="22" ry="9" fill="#1F5135" transform="rotate(-49.2 304.0 242.9)"/><ellipse cx="270.6" cy="276.6" rx="22" ry="9" fill="#1F5135" transform="rotate(-40.1 270.6 276.6)"/><ellipse cx="243.0" cy="315.2" rx="22" ry="9" fill="#1F5135" transform="rotate(-31.1 243.0 315.2)"/><ellipse cx="221.8" cy="357.6" rx="22" ry="9" fill="#1F5135" transform="rotate(-22.0 221.8 357.6)"/><ellipse cx="221.8" cy="357.6" rx="22" ry="9" fill="#1F5135" transform="rotate(158.0 221.8 357.6)"/><ellipse cx="243.0" cy="315.2" rx="22" ry="9" fill="#1F5135" transform="rotate(148.9 243.0 315.2)"/><ellipse cx="270.6" cy="276.6" rx="22" ry="9" fill="#1F5135" transform="rotate(139.9 270.6 276.6)"/><ellipse cx="304.0" cy="242.9" rx="22" ry="9" fill="#1F5135" transform="rotate(130.8 304.0 242.9)"/><ellipse cx="342.2" cy="214.8" rx="22" ry="9" fill="#1F5135" transform="rotate(121.7 342.2 214.8)"/><ellipse cx="384.4" cy="193.2" rx="22" ry="9" fill="#1F5135" transform="rotate(112.7 384.4 193.2)"/><ellipse cx="429.5" cy="178.4" rx="22" ry="9" fill="#1F5135" transform="rotate(103.6 429.5 178.4)"/><ellipse cx="476.3" cy="170.9" rx="22" ry="9" fill="#1F5135" transform="rotate(94.5 476.3 170.9)"/><ellipse cx="523.7" cy="170.9" rx="22" ry="9" fill="#1F5135" transform="rotate(85.5 523.7 170.9)"/><ellipse cx="570.5" cy="178.4" rx="22" ry="9" fill="#1F5135" transform="rotate(76.4 570.5 178.4)"/><ellipse cx="615.6" cy="193.2" rx="22" ry="9" fill="#1F5135" transform="rotate(67.3 615.6 193.2)"/><ellipse cx="657.8" cy="214.8" rx="22" ry="9" fill="#1F5135" transform="rotate(58.3 657.8 214.8)"/><ellipse cx="696.0" cy="242.9" rx="22" ry="9" fill="#1F5135" transform="rotate(49.2 696.0 242.9)"/><ellipse cx="729.4" cy="276.6" rx="22" ry="9" fill="#1F5135" transform="rotate(40.1 729.4 276.6)"/><ellipse cx="757.0" cy="315.2" rx="22" ry="9" fill="#1F5135" transform="rotate(31.1 757.0 315.2)"/><ellipse cx="778.2" cy="357.6" rx="22" ry="9" fill="#1F5135" transform="rotate(22.0 778.2 357.6)"/><text x="500" y="540" font-family="Liberation Serif" font-weight="bold" font-size="230" fill="#1F5135" text-anchor="middle" letter-spacing="-6">CG</text><rect x="360" y="600" width="280" height="3" fill="#C8A24B"/><text x="500" y="660" font-family="Liberation Sans" font-weight="bold" font-size="44" fill="#1F5135" text-anchor="middle" letter-spacing="24">GOLF</text></svg>