<svg xmlns="http://www.w3.org/2000/svg" viewBox="0 0 1000 1000"><rect width="1000" height="1000" fill="#FBF8F1"/><ellipse cx="500" cy="420" rx="120" ry="26" fill="#1F5135" opacity="0.15"/><g>
    <rect x="496" y="200" width="8" height="230" rx="4" fill="#15171A"/>
    <circle cx="500" cy="200" r="7" fill="#15171A"/>
    <path d="M 500 206 L 592 230 L 500 258 Z" fill="#B5402F"/>
  </g><circle cx="560" cy="430" r="14" fill="#15171A"/><circle cx="550.1" cy="424.2" r="1.3" fill="#FBF8F1" opacity="0.25"/><circle cx="550.1" cy="428.4" r="1.3" fill="#FBF8F1" opacity="0.25"/><circle cx="550.1" cy="432.5" r="1.3" fill="#FBF8F1" opacity="0.25"/><circle cx="550.1" cy="436.6" r="1.3" fill="#FBF8F1" opacity="0.25"/><circle cx="554.2" cy="420.1" r="1.3" fill="#FBF8F1" opacity="0.25"/><circle cx="554.2" cy="424.2" r="1.3" fill="#FBF8F1" opacity="0.25"/><circle cx="554.2" cy="428.4" r="1.3" fill="#FBF8F1" opacity="0.25"/><circle cx="554.2" cy="432.5" r="1.3" fill="#FBF8F1" opacity="0.25"/><circle cx="554.2" cy="436.6" r="1.3" fill="#FBF8F1" opacity="0.25"/><circle cx="554.2" cy="440.7" r="1.3" fill="#FBF8F1" opacity="0.25"/><circle cx="558.4" cy="420.1" r="1.3" fill="#FBF8F1" opacity="0.25"/><circle cx="558.4" cy="424.2" r="1.3" fill="#FBF8F1" opacity="0.25"/><circle cx="558.4" cy="428.4" r="1.3" fill="#FBF8F1" opacity="0.25"/><circle cx="558.4" cy="432.5" r="1.3" fill="#FBF8F1" opacity="0.25"/><circle cx="558.4" cy="436.6" r="1.3" fill="#FBF8F1" opacity="0.25"/><circle cx="558.4" cy="440.7" r="1.3" fill="#FBF8F1" opacity="0.25"/><circle cx="562.5" cy="420.1" r="1.3" fill="#FBF8F1" opacity="0.25"/><circle cx="562.5" cy="424.2" r="1.3" fill="#FBF8F1" opacity="0.25"/><circle cx="562.5" cy="428.4" r="1.3" fill="#FBF8F1" opacity="0.25"/><circle cx="562.5" cy="432.5" r="1.3" fill="#FBF8F1" opacity="0.25"/><circle cx="562.5" cy="436.6" r="1.3" fill="#FBF8F1" opacity="0.25"/><circle cx="562.5" cy="440.7" r="1.3" fill="#FBF8F1" opacity="0.25"/><circle cx="566.6" cy="420.1" r="1.3" fill="#FBF8F1" opacity="0.25"/><circle cx="566.6" cy="424.2" r="1.3" fill="#FBF8F1" opacity="0.25"/><circle cx="566.6" cy="428.4" r="1.3" fill="#FBF8F1" opacity="0.25"/><circle cx="566.6" cy="432.5" r="1.3" fill="#FBF8F1" opacity="0.25"/><circle cx="566.6" cy="436.6" r="1.3" fill="#FBF8F1" opacity="0.25"/><circle cx="570.7" cy="424.2" r="1.3" fill="#FBF8F1" opacity="0.25"/><circle cx="570.7" cy="428.4" r="1.3" fill="#FBF8F1" opacity="0.25"/><circle cx="570.7" cy="432.5" r="1.3" fill="#FBF8F1" opacity="0.25"/><text x="500" y="620" font-family="Liberation Serif" font-weight="normal" font-size="104" fill="#15171A" text-anchor="middle" letter-spacing="10">COOPERS</text><rect x="250" y="660" width="500" height="3" fill="#C8A24B"/><text x="500" y="728" font-family="Liberation Sans" font-weight="bold" font-size="40" fill="#C8A24B" text-anchor="middle" letter-spacing="30">GOLF</text></svg>