<svg xmlns="http://www.w3.org/2000/svg" viewBox="0 0 1000 1000"><rect width="1000" height="1000" fill="#FF5630"/><circle cx="500" cy="460" r="250" fill="#FFC02E"/><circle cx="323.5" cy="357.1" r="22.7" fill="#FF7A18" opacity="0.4"/><circle cx="323.5" cy="430.6" r="22.7" fill="#FF7A18" opacity="0.4"/><circle cx="323.5" cy="504.1" r="22.7" fill="#FF7A18" opacity="0.4"/><circle cx="323.5" cy="577.6" r="22.7" fill="#FF7A18" opacity="0.4"/><circle cx="397.1" cy="283.5" r="22.7" fill="#FF7A18" opacity="0.4"/><circle cx="397.1" cy="357.1" r="22.7" fill="#FF7A18" opacity="0.4"/><circle cx="397.1" cy="430.6" r="22.7" fill="#FF7A18" opacity="0.4"/><circle cx="397.1" cy="504.1" r="22.7" fill="#FF7A18" opacity="0.4"/><circle cx="397.1" cy="577.6" r="22.7" fill="#FF7A18" opacity="0.4"/><circle cx="397.1" cy="651.2" r="22.7" fill="#FF7A18" opacity="0.4"/><circle cx="470.6" cy="283.5" r="22.7" fill="#FF7A18" opacity="0.4"/><circle cx="470.6" cy="357.1" r="22.7" fill="#FF7A18" opacity="0.4"/><circle cx="470.6" cy="430.6" r="22.7" fill="#FF7A18" opacity="0.4"/><circle cx="470.6" cy="504.1" r="22.7" fill="#FF7A18" opacity="0.4"/><circle cx="470.6" cy="577.6" r="22.7" fill="#FF7A18" opacity="0.4"/><circle cx="470.6" cy="651.2" r="22.7" fill="#FF7A18" opacity="0.4"/><circle cx="544.1" cy="283.5" r="22.7" fill="#FF7A18" opacity="0.4"/><circle cx="544.1" cy="357.1" r="22.7" fill="#FF7A18" opacity="0.4"/><circle cx="544.1" cy="430.6" r="22.7" fill="#FF7A18" opacity="0.4"/><circle cx="544.1" cy="504.1" r="22.7" fill="#FF7A18" opacity="0.4"/><circle cx="544.1" cy="577.6" r="22.7" fill="#FF7A18" opacity="0.4"/><circle cx="544.1" cy="651.2" r="22.7" fill="#FF7A18" opacity="0.4"/><circle cx="617.6" cy="283.5" r="22.7" fill="#FF7A18" opacity="0.4"/><circle cx="617.6" cy="357.1" r="22.7" fill="#FF7A18" opacity="0.4"/><circle cx="617.6" cy="430.6" r="22.7" fill="#FF7A18" opacity="0.4"/><circle cx="617.6" cy="504.1" r="22.7" fill="#FF7A18" opacity="0.4"/><circle cx="617.6" cy="577.6" r="22.7" fill="#FF7A18" opacity="0.4"/><circle cx="691.2" cy="357.1" r="22.7" fill="#FF7A18" opacity="0.4"/><circle cx="691.2" cy="430.6" r="22.7" fill="#FF7A18" opacity="0.4"/><circle cx="691.2" cy="504.1" r="22.7" fill="#FF7A18" opacity="0.4"/><circle cx="500" cy="460" r="250" fill="none" stroke="#0E0E12" stroke-width="12"/><circle cx="430" cy="420" r="26" fill="#0E0E12"/><circle cx="575" cy="420" r="26" fill="#0E0E12"/><path d="M 405 530 Q 500 620 600 530" stroke="#0E0E12" stroke-width="22" fill="none" stroke-linecap="round"/><rect x="635" y="150" width="10" height="150" rx="5" fill="#0E0E12"/><circle cx="640" cy="150" r="9" fill="#0E0E12"/><path d="M 640 156 L 740 182 L 640 212 Z" fill="#9BE022"/><text x="500" y="880" font-family="Liberation Sans" font-weight="bold" font-size="54" fill="#FFF6E6" text-anchor="middle" letter-spacing="12" >COOPERS GOLF</text></svg>