<svg xmlns="http://www.w3.org/2000/svg" viewBox="0 0 1000 1000"><defs><linearGradient id="s10g" x1="0.49999999999999994" y1="0" x2="0.5" y2="1"><stop offset="0" stop-color="#FFC02E"/><stop offset="1" stop-color="#FF7A18"/></linearGradient></defs><rect width="1000" height="1000" fill="#2E5BFF"/><path d="M 540 230 L 430 520 L 520 520 L 410 780 L 660 470 L 560 470 L 640 230 Z" fill="url(#s10g)" stroke="#0E0E12" stroke-width="10"/><circle cx="380" cy="330" r="60" fill="#FFF6E6"/><circle cx="337.6" cy="305.3" r="5.5" fill="#2E5BFF" opacity="0.4"/><circle cx="337.6" cy="322.9" r="5.5" fill="#2E5BFF" opacity="0.4"/><circle cx="337.6" cy="340.6" r="5.5" fill="#2E5BFF" opacity="0.4"/><circle cx="337.6" cy="358.2" r="5.5" fill="#2E5BFF" opacity="0.4"/><circle cx="355.3" cy="287.6" r="5.5" fill="#2E5BFF" opacity="0.4"/><circle cx="355.3" cy="305.3" r="5.5" fill="#2E5BFF" opacity="0.4"/><circle cx="355.3" cy="322.9" r="5.5" fill="#2E5BFF" opacity="0.4"/><circle cx="355.3" cy="340.6" r="5.5" fill="#2E5BFF" opacity="0.4"/><circle cx="355.3" cy="358.2" r="5.5" fill="#2E5BFF" opacity="0.4"/><circle cx="355.3" cy="375.9" r="5.5" fill="#2E5BFF" opacity="0.4"/><circle cx="372.9" cy="287.6" r="5.5" fill="#2E5BFF" opacity="0.4"/><circle cx="372.9" cy="305.3" r="5.5" fill="#2E5BFF" opacity="0.4"/><circle cx="372.9" cy="322.9" r="5.5" fill="#2E5BFF" opacity="0.4"/><circle cx="372.9" cy="340.6" r="5.5" fill="#2E5BFF" opacity="0.4"/><circle cx="372.9" cy="358.2" r="5.5" fill="#2E5BFF" opacity="0.4"/><circle cx="372.9" cy="375.9" r="5.5" fill="#2E5BFF" opacity="0.4"/><circle cx="390.6" cy="287.6" r="5.5" fill="#2E5BFF" opacity="0.4"/><circle cx="390.6" cy="305.3" r="5.5" fill="#2E5BFF" opacity="0.4"/><circle cx="390.6" cy="322.9" r="5.5" fill="#2E5BFF" opacity="0.4"/><circle cx="390.6" cy="340.6" r="5.5" fill="#2E5BFF" opacity="0.4"/><circle cx="390.6" cy="358.2" r="5.5" fill="#2E5BFF" opacity="0.4"/><circle cx="390.6" cy="375.9" r="5.5" fill="#2E5BFF" opacity="0.4"/><circle cx="408.2" cy="287.6" r="5.5" fill="#2E5BFF" opacity="0.4"/><circle cx="408.2" cy="305.3" r="5.5" fill="#2E5BFF" opacity="0.4"/><circle cx="408.2" cy="322.9" r="5.5" fill="#2E5BFF" opacity="0.4"/><circle cx="408.2" cy="340.6" r="5.5" fill="#2E5BFF" opacity="0.4"/><circle cx="408.2" cy="358.2" r="5.5" fill="#2E5BFF" opacity="0.4"/><circle cx="425.9" cy="305.3" r="5.5" fill="#2E5BFF" opacity="0.4"/><circle cx="425.9" cy="322.9" r="5.5" fill="#2E5BFF" opacity="0.4"/><circle cx="425.9" cy="340.6" r="5.5" fill="#2E5BFF" opacity="0.4"/><circle cx="380" cy="330" r="60" fill="none" stroke="#0E0E12" stroke-width="8"/><text x="500" y="880" font-family="Liberation Sans" font-weight="bold" font-size="54" fill="#FFF6E6" text-anchor="middle" letter-spacing="12" >COOPERS GOLF</text></svg>