<svg xmlns="http://www.w3.org/2000/svg" viewBox="0 0 1000 1000"><defs><radialGradient id="s11g" cx="0.5" cy="0.5" r="0.5"><stop offset="0" stop-color="#FFD23C"/><stop offset="1" stop-color="#FF5630"/></radialGradient></defs><rect width="1000" height="1000" fill="#0E0E12"/><path d="M 500.0 440.0 L 822.3 511.0 L 500.0 440.0 Z" fill="url(#s11g)"/><path d="M 500.0 440.0 L 798.4 581.0 L 500.0 440.0 Z" fill="url(#s11g)"/><path d="M 500.0 440.0 L 759.5 643.8 L 500.0 440.0 Z" fill="url(#s11g)"/><path d="M 500.0 440.0 L 707.7 696.5 L 500.0 440.0 Z" fill="url(#s11g)"/><path d="M 500.0 440.0 L 645.4 736.2 L 500.0 440.0 Z" fill="url(#s11g)"/><path d="M 500.0 440.0 L 575.8 761.2 L 500.0 440.0 Z" fill="url(#s11g)"/><path d="M 500.0 440.0 L 502.5 770.0 L 500.0 440.0 Z" fill="url(#s11g)"/><path d="M 500.0 440.0 L 429.0 762.3 L 500.0 440.0 Z" fill="url(#s11g)"/><path d="M 500.0 440.0 L 359.0 738.4 L 500.0 440.0 Z" fill="url(#s11g)"/><path d="M 500.0 440.0 L 296.2 699.5 L 500.0 440.0 Z" fill="url(#s11g)"/><path d="M 500.0 440.0 L 243.5 647.7 L 500.0 440.0 Z" fill="url(#s11g)"/><path d="M 500.0 440.0 L 203.8 585.4 L 500.0 440.0 Z" fill="url(#s11g)"/><path d="M 500.0 440.0 L 178.8 515.8 L 500.0 440.0 Z" fill="url(#s11g)"/><path d="M 500.0 440.0 L 170.0 442.5 L 500.0 440.0 Z" fill="url(#s11g)"/><path d="M 500.0 440.0 L 177.7 369.0 L 500.0 440.0 Z" fill="url(#s11g)"/><path d="M 500.0 440.0 L 201.6 299.0 L 500.0 440.0 Z" fill="url(#s11g)"/><path d="M 500.0 440.0 L 240.5 236.2 L 500.0 440.0 Z" fill="url(#s11g)"/><path d="M 500.0 440.0 L 292.3 183.5 L 500.0 440.0 Z" fill="url(#s11g)"/><path d="M 500.0 440.0 L 354.6 143.8 L 500.0 440.0 Z" fill="url(#s11g)"/><path d="M 500.0 440.0 L 424.2 118.8 L 500.0 440.0 Z" fill="url(#s11g)"/><path d="M 500.0 440.0 L 497.5 110.0 L 500.0 440.0 Z" fill="url(#s11g)"/><path d="M 500.0 440.0 L 571.0 117.7 L 500.0 440.0 Z" fill="url(#s11g)"/><path d="M 500.0 440.0 L 641.0 141.6 L 500.0 440.0 Z" fill="url(#s11g)"/><path d="M 500.0 440.0 L 703.8 180.5 L 500.0 440.0 Z" fill="url(#s11g)"/><path d="M 500.0 440.0 L 756.5 232.3 L 500.0 440.0 Z" fill="url(#s11g)"/><path d="M 500.0 440.0 L 796.2 294.6 L 500.0 440.0 Z" fill="url(#s11g)"/><path d="M 500.0 440.0 L 821.2 364.2 L 500.0 440.0 Z" fill="url(#s11g)"/><path d="M 500.0 440.0 L 830.0 437.5 L 500.0 440.0 Z" fill="url(#s11g)"/><circle cx="500" cy="440" r="190" fill="#0E0E12"/><text x="500" y="420" font-family="Liberation Sans" font-weight="bold" font-size="46" fill="#FFC02E" text-anchor="middle" letter-spacing="6" >AUSTRALIA’S</text><text x="500" y="480" font-family="Liberation Sans" font-weight="bold" font-size="92" fill="#FFF6E6" text-anchor="middle" letter-spacing="8" >BEST</text><text x="500" y="820" font-family="Liberation Sans" font-weight="bold" font-size="46" fill="#FFF6E6" text-anchor="middle" letter-spacing="10" >— COOPERS GOLF —</text></svg>