<svg xmlns="http://www.w3.org/2000/svg" viewBox="0 0 1000 1000"><rect width="1000" height="1000" fill="#0E0E12"/><text x="140" y="520" font-family="Liberation Sans" font-weight="bold" font-size="150" fill="#FFF6E6" text-anchor="middle">C</text><text x="500" y="520" font-family="Liberation Sans" font-weight="bold" font-size="150" fill="#FFF6E6" text-anchor="middle">P</text><text x="620" y="520" font-family="Liberation Sans" font-weight="bold" font-size="150" fill="#FFF6E6" text-anchor="middle">E</text><text x="740" y="520" font-family="Liberation Sans" font-weight="bold" font-size="150" fill="#FFF6E6" text-anchor="middle">R</text><text x="860" y="520" font-family="Liberation Sans" font-weight="bold" font-size="150" fill="#FFF6E6" text-anchor="middle">S</text><circle cx="260" cy="472" r="58" fill="#FFC02E"/><circle cx="219.1" cy="448.1" r="5.3" fill="#FF7A18" opacity="0.4"/><circle cx="219.1" cy="465.2" r="5.3" fill="#FF7A18" opacity="0.4"/><circle cx="219.1" cy="482.2" r="5.3" fill="#FF7A18" opacity="0.4"/><circle cx="219.1" cy="499.3" r="5.3" fill="#FF7A18" opacity="0.4"/><circle cx="236.1" cy="431.1" r="5.3" fill="#FF7A18" opacity="0.4"/><circle cx="236.1" cy="448.1" r="5.3" fill="#FF7A18" opacity="0.4"/><circle cx="236.1" cy="465.2" r="5.3" fill="#FF7A18" opacity="0.4"/><circle cx="236.1" cy="482.2" r="5.3" fill="#FF7A18" opacity="0.4"/><circle cx="236.1" cy="499.3" r="5.3" fill="#FF7A18" opacity="0.4"/><circle cx="236.1" cy="516.4" r="5.3" fill="#FF7A18" opacity="0.4"/><circle cx="253.2" cy="431.1" r="5.3" fill="#FF7A18" opacity="0.4"/><circle cx="253.2" cy="448.1" r="5.3" fill="#FF7A18" opacity="0.4"/><circle cx="253.2" cy="465.2" r="5.3" fill="#FF7A18" opacity="0.4"/><circle cx="253.2" cy="482.2" r="5.3" fill="#FF7A18" opacity="0.4"/><circle cx="253.2" cy="499.3" r="5.3" fill="#FF7A18" opacity="0.4"/><circle cx="253.2" cy="516.4" r="5.3" fill="#FF7A18" opacity="0.4"/><circle cx="270.2" cy="431.1" r="5.3" fill="#FF7A18" opacity="0.4"/><circle cx="270.2" cy="448.1" r="5.3" fill="#FF7A18" opacity="0.4"/><circle cx="270.2" cy="465.2" r="5.3" fill="#FF7A18" opacity="0.4"/><circle cx="270.2" cy="482.2" r="5.3" fill="#FF7A18" opacity="0.4"/><circle cx="270.2" cy="499.3" r="5.3" fill="#FF7A18" opacity="0.4"/><circle cx="270.2" cy="516.4" r="5.3" fill="#FF7A18" opacity="0.4"/><circle cx="287.3" cy="431.1" r="5.3" fill="#FF7A18" opacity="0.4"/><circle cx="287.3" cy="448.1" r="5.3" fill="#FF7A18" opacity="0.4"/><circle cx="287.3" cy="465.2" r="5.3" fill="#FF7A18" opacity="0.4"/><circle cx="287.3" cy="482.2" r="5.3" fill="#FF7A18" opacity="0.4"/><circle cx="287.3" cy="499.3" r="5.3" fill="#FF7A18" opacity="0.4"/><circle cx="304.4" cy="448.1" r="5.3" fill="#FF7A18" opacity="0.4"/><circle cx="304.4" cy="465.2" r="5.3" fill="#FF7A18" opacity="0.4"/><circle cx="304.4" cy="482.2" r="5.3" fill="#FF7A18" opacity="0.4"/><circle cx="260" cy="472" r="58" fill="none" stroke="#FFF6E6" stroke-width="6"/><circle cx="380" cy="472" r="58" fill="#FF5630"/><circle cx="339.1" cy="448.1" r="5.3" fill="#0E0E12" opacity="0.3"/><circle cx="339.1" cy="465.2" r="5.3" fill="#0E0E12" opacity="0.3"/><circle cx="339.1" cy="482.2" r="5.3" fill="#0E0E12" opacity="0.3"/><circle cx="339.1" cy="499.3" r="5.3" fill="#0E0E12" opacity="0.3"/><circle cx="356.1" cy="431.1" r="5.3" fill="#0E0E12" opacity="0.3"/><circle cx="356.1" cy="448.1" r="5.3" fill="#0E0E12" opacity="0.3"/><circle cx="356.1" cy="465.2" r="5.3" fill="#0E0E12" opacity="0.3"/><circle cx="356.1" cy="482.2" r="5.3" fill="#0E0E12" opacity="0.3"/><circle cx="356.1" cy="499.3" r="5.3" fill="#0E0E12" opacity="0.3"/><circle cx="356.1" cy="516.4" r="5.3" fill="#0E0E12" opacity="0.3"/><circle cx="373.2" cy="431.1" r="5.3" fill="#0E0E12" opacity="0.3"/><circle cx="373.2" cy="448.1" r="5.3" fill="#0E0E12" opacity="0.3"/><circle cx="373.2" cy="465.2" r="5.3" fill="#0E0E12" opacity="0.3"/><circle cx="373.2" cy="482.2" r="5.3" fill="#0E0E12" opacity="0.3"/><circle cx="373.2" cy="499.3" r="5.3" fill="#0E0E12" opacity="0.3"/><circle cx="373.2" cy="516.4" r="5.3" fill="#0E0E12" opacity="0.3"/><circle cx="390.2" cy="431.1" r="5.3" fill="#0E0E12" opacity="0.3"/><circle cx="390.2" cy="448.1" r="5.3" fill="#0E0E12" opacity="0.3"/><circle cx="390.2" cy="465.2" r="5.3" fill="#0E0E12" opacity="0.3"/><circle cx="390.2" cy="482.2" r="5.3" fill="#0E0E12" opacity="0.3"/><circle cx="390.2" cy="499.3" r="5.3" fill="#0E0E12" opacity="0.3"/><circle cx="390.2" cy="516.4" r="5.3" fill="#0E0E12" opacity="0.3"/><circle cx="407.3" cy="431.1" r="5.3" fill="#0E0E12" opacity="0.3"/><circle cx="407.3" cy="448.1" r="5.3" fill="#0E0E12" opacity="0.3"/><circle cx="407.3" cy="465.2" r="5.3" fill="#0E0E12" opacity="0.3"/><circle cx="407.3" cy="482.2" r="5.3" fill="#0E0E12" opacity="0.3"/><circle cx="407.3" cy="499.3" r="5.3" fill="#0E0E12" opacity="0.3"/><circle cx="424.4" cy="448.1" r="5.3" fill="#0E0E12" opacity="0.3"/><circle cx="424.4" cy="465.2" r="5.3" fill="#0E0E12" opacity="0.3"/><circle cx="424.4" cy="482.2" r="5.3" fill="#0E0E12" opacity="0.3"/><circle cx="380" cy="472" r="58" fill="none" stroke="#FFF6E6" stroke-width="6"/><text x="500" y="650" font-family="Liberation Sans" font-weight="bold" font-size="40" fill="#9BE022" text-anchor="middle" letter-spacing="16" >GOLF · AUSTRALIA</text></svg>