<svg xmlns="http://www.w3.org/2000/svg" viewBox="0 0 1000 1000"><defs><linearGradient id="s21g" x1="0.49999999999999994" y1="0" x2="0.5" y2="1"><stop offset="0" stop-color="#FFC02E"/><stop offset="1" stop-color="#FF5630"/></linearGradient></defs><rect width="1000" height="1000" fill="#0E0E12"/><path d="M 579.0 372.5 L 842.4 471.2 L 571.3 396.3 Z" fill="#FFC02E"/><path d="M 571.3 396.3 L 791.2 571.6 L 556.6 416.6 Z" fill="#FFC02E"/><path d="M 556.6 416.6 L 711.6 651.2 L 536.3 431.3 Z" fill="#FFC02E"/><path d="M 536.3 431.3 L 611.2 702.4 L 512.5 439.0 Z" fill="#FFC02E"/><path d="M 512.5 439.0 L 500.0 720.0 L 487.5 439.0 Z" fill="#FFC02E"/><path d="M 487.5 439.0 L 388.8 702.4 L 463.7 431.3 Z" fill="#FFC02E"/><path d="M 463.7 431.3 L 288.4 651.2 L 443.4 416.6 Z" fill="#FFC02E"/><path d="M 443.4 416.6 L 208.8 571.6 L 428.7 396.3 Z" fill="#FFC02E"/><path d="M 428.7 396.3 L 157.6 471.2 L 421.0 372.5 Z" fill="#FFC02E"/><path d="M 421.0 372.5 L 140.0 360.0 L 421.0 347.5 Z" fill="#FFC02E"/><path d="M 421.0 347.5 L 157.6 248.8 L 428.7 323.7 Z" fill="#FFC02E"/><path d="M 428.7 323.7 L 208.8 148.4 L 443.4 303.4 Z" fill="#FFC02E"/><path d="M 443.4 303.4 L 288.4 68.8 L 463.7 288.7 Z" fill="#FFC02E"/><path d="M 463.7 288.7 L 388.8 17.6 L 487.5 281.0 Z" fill="#FFC02E"/><path d="M 487.5 281.0 L 500.0 0.0 L 512.5 281.0 Z" fill="#FFC02E"/><path d="M 512.5 281.0 L 611.2 17.6 L 536.3 288.7 Z" fill="#FFC02E"/><path d="M 536.3 288.7 L 711.6 68.8 L 556.6 303.4 Z" fill="#FFC02E"/><path d="M 556.6 303.4 L 791.2 148.4 L 571.3 323.7 Z" fill="#FFC02E"/><path d="M 571.3 323.7 L 842.4 248.8 L 579.0 347.5 Z" fill="#FFC02E"/><path d="M 579.0 347.5 L 860.0 360.0 L 579.0 372.5 Z" fill="#FFC02E"/><circle cx="500" cy="360" r="110" fill="#FF5630" stroke="#0E0E12" stroke-width="8"/><circle cx="500" cy="360" r="70" fill="#FFF6E6"/><circle cx="450.6" cy="331.2" r="6.4" fill="#FF5630" opacity="0.35"/><circle cx="450.6" cy="351.8" r="6.4" fill="#FF5630" opacity="0.35"/><circle cx="450.6" cy="372.4" r="6.4" fill="#FF5630" opacity="0.35"/><circle cx="450.6" cy="392.9" r="6.4" fill="#FF5630" opacity="0.35"/><circle cx="471.2" cy="310.6" r="6.4" fill="#FF5630" opacity="0.35"/><circle cx="471.2" cy="331.2" r="6.4" fill="#FF5630" opacity="0.35"/><circle cx="471.2" cy="351.8" r="6.4" fill="#FF5630" opacity="0.35"/><circle cx="471.2" cy="372.4" r="6.4" fill="#FF5630" opacity="0.35"/><circle cx="471.2" cy="392.9" r="6.4" fill="#FF5630" opacity="0.35"/><circle cx="471.2" cy="413.5" r="6.4" fill="#FF5630" opacity="0.35"/><circle cx="491.8" cy="310.6" r="6.4" fill="#FF5630" opacity="0.35"/><circle cx="491.8" cy="331.2" r="6.4" fill="#FF5630" opacity="0.35"/><circle cx="491.8" cy="351.8" r="6.4" fill="#FF5630" opacity="0.35"/><circle cx="491.8" cy="372.4" r="6.4" fill="#FF5630" opacity="0.35"/><circle cx="491.8" cy="392.9" r="6.4" fill="#FF5630" opacity="0.35"/><circle cx="491.8" cy="413.5" r="6.4" fill="#FF5630" opacity="0.35"/><circle cx="512.4" cy="310.6" r="6.4" fill="#FF5630" opacity="0.35"/><circle cx="512.4" cy="331.2" r="6.4" fill="#FF5630" opacity="0.35"/><circle cx="512.4" cy="351.8" r="6.4" fill="#FF5630" opacity="0.35"/><circle cx="512.4" cy="372.4" r="6.4" fill="#FF5630" opacity="0.35"/><circle cx="512.4" cy="392.9" r="6.4" fill="#FF5630" opacity="0.35"/><circle cx="512.4" cy="413.5" r="6.4" fill="#FF5630" opacity="0.35"/><circle cx="532.9" cy="310.6" r="6.4" fill="#FF5630" opacity="0.35"/><circle cx="532.9" cy="331.2" r="6.4" fill="#FF5630" opacity="0.35"/><circle cx="532.9" cy="351.8" r="6.4" fill="#FF5630" opacity="0.35"/><circle cx="532.9" cy="372.4" r="6.4" fill="#FF5630" opacity="0.35"/><circle cx="532.9" cy="392.9" r="6.4" fill="#FF5630" opacity="0.35"/><circle cx="553.5" cy="331.2" r="6.4" fill="#FF5630" opacity="0.35"/><circle cx="553.5" cy="351.8" r="6.4" fill="#FF5630" opacity="0.35"/><circle cx="553.5" cy="372.4" r="6.4" fill="#FF5630" opacity="0.35"/><text x="500" y="720" font-family="Liberation Sans" font-weight="bold" font-size="110" fill="#FFF6E6" text-anchor="middle" letter-spacing="6" >COOPERS</text><text x="500" y="800" font-family="Liberation Sans" font-weight="bold" font-size="40" fill="#FFC02E" text-anchor="middle" letter-spacing="14" >GOLF — AUSTRALIA</text></svg>