<svg xmlns="http://www.w3.org/2000/svg" viewBox="0 0 1000 1000"><rect width="1000" height="1000" fill="#06C3C3"/><path d="M 360 700 L 500 320 L 640 700" fill="none" stroke="#FF5630" stroke-width="64" stroke-linecap="round" stroke-linejoin="round"/><path d="M 360 700 L 500 320 L 640 700" fill="none" stroke="#0E0E12" stroke-width="64" stroke-linecap="round" stroke-linejoin="round" opacity="0" /><circle cx="500" cy="470" r="64" fill="#FFF6E6"/><circle cx="454.8" cy="443.6" r="5.8" fill="#06C3C3" opacity="0.4"/><circle cx="454.8" cy="462.5" r="5.8" fill="#06C3C3" opacity="0.4"/><circle cx="454.8" cy="481.3" r="5.8" fill="#06C3C3" opacity="0.4"/><circle cx="454.8" cy="500.1" r="5.8" fill="#06C3C3" opacity="0.4"/><circle cx="473.6" cy="424.8" r="5.8" fill="#06C3C3" opacity="0.4"/><circle cx="473.6" cy="443.6" r="5.8" fill="#06C3C3" opacity="0.4"/><circle cx="473.6" cy="462.5" r="5.8" fill="#06C3C3" opacity="0.4"/><circle cx="473.6" cy="481.3" r="5.8" fill="#06C3C3" opacity="0.4"/><circle cx="473.6" cy="500.1" r="5.8" fill="#06C3C3" opacity="0.4"/><circle cx="473.6" cy="518.9" r="5.8" fill="#06C3C3" opacity="0.4"/><circle cx="492.5" cy="424.8" r="5.8" fill="#06C3C3" opacity="0.4"/><circle cx="492.5" cy="443.6" r="5.8" fill="#06C3C3" opacity="0.4"/><circle cx="492.5" cy="462.5" r="5.8" fill="#06C3C3" opacity="0.4"/><circle cx="492.5" cy="481.3" r="5.8" fill="#06C3C3" opacity="0.4"/><circle cx="492.5" cy="500.1" r="5.8" fill="#06C3C3" opacity="0.4"/><circle cx="492.5" cy="518.9" r="5.8" fill="#06C3C3" opacity="0.4"/><circle cx="511.3" cy="424.8" r="5.8" fill="#06C3C3" opacity="0.4"/><circle cx="511.3" cy="443.6" r="5.8" fill="#06C3C3" opacity="0.4"/><circle cx="511.3" cy="462.5" r="5.8" fill="#06C3C3" opacity="0.4"/><circle cx="511.3" cy="481.3" r="5.8" fill="#06C3C3" opacity="0.4"/><circle cx="511.3" cy="500.1" r="5.8" fill="#06C3C3" opacity="0.4"/><circle cx="511.3" cy="518.9" r="5.8" fill="#06C3C3" opacity="0.4"/><circle cx="530.1" cy="424.8" r="5.8" fill="#06C3C3" opacity="0.4"/><circle cx="530.1" cy="443.6" r="5.8" fill="#06C3C3" opacity="0.4"/><circle cx="530.1" cy="462.5" r="5.8" fill="#06C3C3" opacity="0.4"/><circle cx="530.1" cy="481.3" r="5.8" fill="#06C3C3" opacity="0.4"/><circle cx="530.1" cy="500.1" r="5.8" fill="#06C3C3" opacity="0.4"/><circle cx="548.9" cy="443.6" r="5.8" fill="#06C3C3" opacity="0.4"/><circle cx="548.9" cy="462.5" r="5.8" fill="#06C3C3" opacity="0.4"/><circle cx="548.9" cy="481.3" r="5.8" fill="#06C3C3" opacity="0.4"/><circle cx="500" cy="470" r="64" fill="none" stroke="#0E0E12" stroke-width="8"/><text x="500" y="860" font-family="Liberation Sans" font-weight="bold" font-size="54" fill="#0E0E12" text-anchor="middle" letter-spacing="12" >COOPERS GOLF</text><text x="500" y="915" font-family="Liberation Sans" font-weight="bold" font-size="30" fill="#FFF6E6" text-anchor="middle" letter-spacing="18" >AUSTRALIA</text></svg>