<svg xmlns="http://www.w3.org/2000/svg" viewBox="0 0 1000 1000"><defs><radialGradient id="s25g" cx="0.5" cy="0.5" r="0.5"><stop offset="0" stop-color="#FFD23C"/><stop offset="0.6" stop-color="#FF7A18"/><stop offset="1" stop-color="#FF5630"/></radialGradient></defs><rect width="1000" height="1000" fill="#0E0E12"/><circle cx="500" cy="500" r="448" fill="#FF5630"/><circle cx="500" cy="500" r="360" fill="#0E0E12"/><defs><path id="s25T" d="M 95 500 A 405 405 0 0 1 905 500"/><path id="s25B" d="M 95 500 A 405 405 0 0 0 905 500"/></defs><text font-family="Liberation Sans" font-weight="bold" font-size="56" fill="#FF5630" letter-spacing="8" text-anchor="middle"><textPath href="#s25T" startOffset="50%">COOPERS GOLF</textPath></text><text font-family="Liberation Sans" font-weight="bold" font-size="56" fill="#FF5630" letter-spacing="8" text-anchor="middle"><textPath href="#s25B" startOffset="50%">· AUSTRALIA ·</textPath></text><path d="M 647.2 528.6 L 805.4 625.0 L 625.1 582.8 Z" fill="#FFC02E"/><path d="M 625.1 582.8 L 734.4 732.3 L 583.9 624.4 Z" fill="#FFC02E"/><path d="M 583.9 624.4 L 627.6 804.3 L 529.9 647.0 Z" fill="#FFC02E"/><path d="M 529.9 647.0 L 501.4 830.0 L 471.4 647.2 Z" fill="#FFC02E"/><path d="M 471.4 647.2 L 375.0 805.4 L 417.2 625.1 Z" fill="#FFC02E"/><path d="M 417.2 625.1 L 267.7 734.4 L 375.6 583.9 Z" fill="#FFC02E"/><path d="M 375.6 583.9 L 195.7 627.6 L 353.0 529.9 Z" fill="#FFC02E"/><path d="M 353.0 529.9 L 170.0 501.4 L 352.8 471.4 Z" fill="#FFC02E"/><path d="M 352.8 471.4 L 194.6 375.0 L 374.9 417.2 Z" fill="#FFC02E"/><path d="M 374.9 417.2 L 265.6 267.7 L 416.1 375.6 Z" fill="#FFC02E"/><path d="M 416.1 375.6 L 372.4 195.7 L 470.1 353.0 Z" fill="#FFC02E"/><path d="M 470.1 353.0 L 498.6 170.0 L 528.6 352.8 Z" fill="#FFC02E"/><path d="M 528.6 352.8 L 625.0 194.6 L 582.8 374.9 Z" fill="#FFC02E"/><path d="M 582.8 374.9 L 732.3 265.6 L 624.4 416.1 Z" fill="#FFC02E"/><path d="M 624.4 416.1 L 804.3 372.4 L 647.0 470.1 Z" fill="#FFC02E"/><path d="M 647.0 470.1 L 830.0 498.6 L 647.2 528.6 Z" fill="#FFC02E"/><circle cx="500" cy="500" r="150" fill="url(#s25g)"/><circle cx="455" cy="475" r="16" fill="#0E0E12"/><circle cx="545" cy="475" r="16" fill="#0E0E12"/><path d="M 445 540 Q 500 585 555 540" stroke="#0E0E12" stroke-width="14" fill="none" stroke-linecap="round"/></svg>